ffmpeg version 3.4.8-0ubuntu0.2 Copyright (c) 2000-2020 the FFmpeg developers
  built with gcc 7 (Ubuntu 7.5.0-3ubuntu1~18.04)
  configuration: --prefix=/usr --extra-version=0ubuntu0.2 --toolchain=hardened --libdir=/usr/lib/x86_64-linux-gnu --incdir=/usr/include/x86_64-linux-gnu --enable-gpl --disable-stripping --enable-avresample --enable-avisynth --enable-gnutls --enable-ladspa --enable-libass --enable-libbluray --enable-libbs2b --enable-libcaca --enable-libcdio --enable-libflite --enable-libfontconfig --enable-libfreetype --enable-libfribidi --enable-libgme --enable-libgsm --enable-libmp3lame --enable-libmysofa --enable-libopenjpeg --enable-libopenmpt --enable-libopus --enable-libpulse --enable-librubberband --enable-librsvg --enable-libshine --enable-libsnappy --enable-libsoxr --enable-libspeex --enable-libssh --enable-libtheora --enable-libtwolame --enable-libvorbis --enable-libvpx --enable-libwavpack --enable-libwebp --enable-libx265 --enable-libxml2 --enable-libxvid --enable-libzmq --enable-libzvbi --enable-omx --enable-openal --enable-opengl --enable-sdl2 --enable-libdc1394 --enable-libdrm --enable-libiec61883 --enable-chromaprint --enable-frei0r --enable-libopencv --enable-libx264 --enable-shared
  libavutil      55. 78.100 / 55. 78.100
  libavcodec     57.107.100 / 57.107.100
  libavformat    57. 83.100 / 57. 83.100
  libavdevice    57. 10.100 / 57. 10.100
  libavfilter     6.107.100 /  6.107.100
  libavresample   3.  7.  0 /  3.  7.  0
  libswscale      4.  8.100 /  4.  8.100
  libswresample   2.  9.100 /  2.  9.100
  libpostproc    54.  7.100 / 54.  7.100
[rawvideo @ 0x5555ed02fa20] Estimating duration from bitrate, this may be inaccurate
Input #0, rawvideo, from '../../SVC-Encoder-20220109T061506Z-001/SVC-Encoder/Dataset/RollerCoaster/6f_2x2/tile_yuv/f0_t2_480x480.yuv':
  Duration: 00:00:10.00, start: 0.000000, bitrate: 82944 kb/s
    Stream #0:0: Video: rawvideo (I420 / 0x30323449), yuv420p, 480x480, 82944 kb/s, 30 tbr, 30 tbn, 30 tbc
Stream mapping:
  Stream #0:0 -> #0:0 (rawvideo (native) -> h264 (libx264))
Press [q] to stop, [?] for help
[libx264 @ 0x5555ed03cc60] using cpu capabilities: MMX2 SSE2Fast LZCNT SSSE3 SSE4.2 AVX
[libx264 @ 0x5555ed03cc60] profile High, level 3.0
Output #0, rawvideo, to 'RollerCoaster_f0_t2_480x480_x264_QP_40.h264':
  Metadata:
    encoder         : Lavf57.83.100
    Stream #0:0: Video: h264 (libx264), yuv420p, 480x480, q=-1--1, 30 fps, 30 tbn, 30 tbc
    Metadata:
      encoder         : Lavc57.107.100 libx264
    Side data:
      cpb: bitrate max/min/avg: 0/0/0 buffer size: 0 vbv_delay: -1
frame=  162 fps=0.0 q=46.0 PSNR=Y:nan U:nan V:nan *:nan size=      48kB time=00:00:03.96 bitrate=  98.2kbits/s speed=7.92x    frame=  300 fps=272 q=46.0 LPSNR=Y:inf U:inf V:inf *:inf size=     112kB time=00:00:09.93 bitrate=  92.2kbits/s speed=8.99x    
video:112kB audio:0kB subtitle:0kB other streams:0kB global headers:0kB muxing overhead: 0.000000%
[libx264 @ 0x5555ed03cc60] frame I:2     Avg QP:38.77  size:  5526  PSNR Mean Y:32.78 U:40.35 V:43.01 Avg:34.25 Global:34.18
[libx264 @ 0x5555ed03cc60] frame P:76    Avg QP:40.39  size:   811  PSNR Mean Y:31.53 U:40.00 V:42.68 Avg:33.06 Global:33.05
[libx264 @ 0x5555ed03cc60] frame B:222   Avg QP:45.49  size:   188  PSNR Mean Y:31.24 U:39.95 V:42.67 Avg:32.78 Global:32.77
[libx264 @ 0x5555ed03cc60] consecutive B-frames:  1.3%  0.0%  0.0% 98.7%
[libx264 @ 0x5555ed03cc60] mb I  I16..4: 26.9% 65.4%  7.7%
[libx264 @ 0x5555ed03cc60] mb P  I16..4:  1.0%  1.1%  0.0%  P16..4: 28.0%  3.0%  0.5%  0.0%  0.0%    skip:66.3%
[libx264 @ 0x5555ed03cc60] mb B  I16..4:  0.0%  0.0%  0.0%  B16..8: 13.7%  0.4%  0.0%  direct: 0.0%  skip:85.8%  L0:35.7% L1:64.2% BI: 0.1%
[libx264 @ 0x5555ed03cc60] 8x8 transform intra:58.7% inter:88.0%
[libx264 @ 0x5555ed03cc60] coded y,uvDC,uvAC intra: 23.7% 31.3% 7.4% inter: 1.1% 1.2% 0.0%
[libx264 @ 0x5555ed03cc60] i16 v,h,dc,p: 37% 37% 14% 12%
[libx264 @ 0x5555ed03cc60] i8 v,h,dc,ddl,ddr,vr,hd,vl,hu: 11% 12% 56%  2%  1%  1%  2% 11%  4%
[libx264 @ 0x5555ed03cc60] i4 v,h,dc,ddl,ddr,vr,hd,vl,hu: 29% 17% 17%  7%  2%  3%  3% 20%  3%
[libx264 @ 0x5555ed03cc60] i8c dc,h,v,p: 75% 11% 11%  4%
[libx264 @ 0x5555ed03cc60] Weighted P-Frames: Y:1.3% UV:0.0%
[libx264 @ 0x5555ed03cc60] ref P L0: 60.8% 15.5% 18.3%  5.3%  0.0%
[libx264 @ 0x5555ed03cc60] ref B L0: 84.5% 13.7%  1.8%
[libx264 @ 0x5555ed03cc60] ref B L1: 89.3% 10.7%
[libx264 @ 0x5555ed03cc60] PSNR Mean Y:31.324 U:39.962 V:42.671 Avg:32.862 Global:32.846 kb/s:91.59
